<svg xmlns="http://www.w3.org/2000/svg" width="1000" height="560" viewBox="0 0 1000 560" role="img" aria-label="Heuristic macro signal emphasis chart for Migration Drop and Long-Term Yields">
<rect width="100%" height="100%" fill="#ffffff" />
<text x="90" y="46" font-size="28" font-family="Arial, sans-serif" fill="#111827">Migration Drop and Long-Term Yields macro signal emphasis</text>
<line x1="90" y1="430" x2="950" y2="430" stroke="#9ca3af" stroke-width="2"/>
<line x1="90" y1="90" x2="90" y2="430" stroke="#9ca3af" stroke-width="2"/>
<line x1="90" y1="430.00" x2="950" y2="430.00" stroke="#e5e7eb" stroke-width="1"/>
<text x="78" y="435.00" text-anchor="end" font-size="13" font-family="Arial, sans-serif" fill="#6b7280">1.1 signal score</text>
<line x1="90" y1="345.00" x2="950" y2="345.00" stroke="#e5e7eb" stroke-width="1"/>
<text x="78" y="350.00" text-anchor="end" font-size="13" font-family="Arial, sans-serif" fill="#6b7280">3.15 signal score</text>
<line x1="90" y1="260.00" x2="950" y2="260.00" stroke="#e5e7eb" stroke-width="1"/>
<text x="78" y="265.00" text-anchor="end" font-size="13" font-family="Arial, sans-serif" fill="#6b7280">5.2 signal score</text>
<line x1="90" y1="175.00" x2="950" y2="175.00" stroke="#e5e7eb" stroke-width="1"/>
<text x="78" y="180.00" text-anchor="end" font-size="13" font-family="Arial, sans-serif" fill="#6b7280">7.25 signal score</text>
<line x1="90" y1="90.00" x2="950" y2="90.00" stroke="#e5e7eb" stroke-width="1"/>
<text x="78" y="95.00" text-anchor="end" font-size="13" font-family="Arial, sans-serif" fill="#6b7280">9.3 signal score</text>
<rect x="133.00" y="430.00" width="129.00" height="0.00" fill="#2563eb" rx="4"/>
<text x="197.50" y="458" text-anchor="middle" font-size="13" font-family="Arial, sans-serif" fill="#374151">Inflation</text>
<rect x="348.00" y="94.15" width="129.00" height="335.85" fill="#2563eb" rx="4"/>
<text x="412.50" y="458" text-anchor="middle" font-size="13" font-family="Arial, sans-serif" fill="#374151">Rates</text>
<rect x="563.00" y="90.00" width="129.00" height="340.00" fill="#2563eb" rx="4"/>
<text x="627.50" y="458" text-anchor="middle" font-size="13" font-family="Arial, sans-serif" fill="#374151">Growth</text>
<rect x="778.00" y="417.56" width="129.00" height="12.44" fill="#2563eb" rx="4"/>
<text x="842.50" y="458" text-anchor="middle" font-size="13" font-family="Arial, sans-serif" fill="#374151">Risk</text>
</svg>